<svg version="1.1" id="Layer_1" xmlns="http://www.w3.org/2000/svg" xmlns:xlink="http://www.w3.org/1999/xlink" x="0px" y="0px"
	 width="100%" viewBox="0 0 256 256" enable-background="new 0 0 256 256" xml:space="preserve">
<path fill="#000000" opacity="1.000000" stroke="none" 
	d="
M97.444168,257.000000 
	C99.131668,251.851944 104.880508,250.316849 107.904335,246.164429 
	C110.604965,242.455856 114.965187,240.014908 117.090630,234.762100 
	C106.707382,235.604416 98.798569,243.059311 88.777153,241.672989 
	C88.764542,238.946991 91.209503,239.882233 92.410706,239.077255 
	C102.647713,232.217194 113.322098,226.115799 122.922379,218.177078 
	C131.588058,211.011200 139.118195,202.982300 145.209854,193.803909 
	C148.899490,188.244659 150.880203,181.500427 152.789719,174.895279 
	C154.272110,169.767609 154.250473,164.380676 155.585938,158.867203 
	C162.005768,164.865158 156.954285,197.760895 143.994888,216.774429 
	C147.607010,216.822235 158.884247,207.279251 162.945480,202.347260 
	C168.479233,195.627090 171.194031,187.896744 173.788330,179.854202 
	C176.431427,171.660431 176.126724,163.556198 174.121719,154.877701 
	C178.627731,156.065689 178.105408,160.199615 180.460602,162.821091 
	C182.285080,158.840469 181.838226,154.840820 181.528610,151.027588 
	C180.674530,140.508194 177.631195,130.738525 170.635315,122.509888 
	C169.297546,120.936409 168.394791,118.967049 167.333328,117.269653 
	C164.813553,113.240211 161.375412,112.173958 157.324112,112.420143 
	C152.696198,112.701378 148.142776,112.966827 143.504990,112.280190 
	C134.851593,110.999023 128.795807,115.411224 123.845535,121.895493 
	C123.130676,122.831871 123.147575,122.844772 119.780190,124.262276 
	C117.623917,116.482544 121.050255,108.496147 119.072304,100.225197 
	C113.475975,110.762428 109.093643,120.832680 109.284630,132.383575 
	C109.528725,147.146271 108.688911,161.934219 110.580925,176.848572 
	C114.055466,170.357803 116.019867,163.406754 118.811783,156.491409 
	C120.655510,167.977707 120.375122,179.317566 120.074844,190.697433 
	C123.889641,187.450851 125.397842,182.055313 128.221344,177.611618 
	C130.388306,174.201187 130.986664,169.966064 133.868790,166.758392 
	C135.606262,164.824677 134.415024,161.924911 134.695740,159.474457 
	C134.893723,157.746048 135.105606,155.893234 137.337952,155.955063 
	C139.494125,156.014771 139.189224,157.953781 139.272964,159.376556 
	C139.676666,166.234543 137.015945,172.643188 136.281158,179.298965 
	C135.551880,185.904770 131.696136,190.851135 128.835495,196.325027 
	C124.073204,205.437775 116.429039,211.960220 108.205788,217.784866 
	C106.873817,218.728302 105.484100,219.517120 104.291656,220.698715 
	C102.640663,222.334702 100.729530,223.617691 97.599121,222.613647 
	C99.294357,217.224930 102.117645,212.085464 99.892784,205.317062 
	C90.012627,217.658875 79.702660,228.908112 65.141640,235.562927 
	C69.821579,221.719833 75.423309,208.311691 74.624123,193.365753 
	C67.245583,196.898132 62.053905,202.545197 56.332169,207.491074 
	C53.610077,209.844070 52.665905,213.762634 49.378571,215.771362 
	C48.001972,216.612518 46.949852,218.391739 45.088379,217.386475 
	C43.285789,216.412994 43.449612,214.278549 43.940487,212.888779 
	C46.792168,204.815186 45.235077,195.687759 51.256054,188.159912 
	C54.218086,184.456558 55.005074,178.830383 58.281918,174.733063 
	C65.941826,165.155243 75.529388,158.141632 86.344757,152.554886 
	C89.449318,150.951202 93.095024,149.457840 93.389069,144.996109 
	C93.465843,143.831177 93.943977,142.581085 92.741478,141.825516 
	C91.626610,141.125000 90.341896,141.427017 89.563316,142.391190 
	C87.230766,145.279755 84.057404,144.095612 81.182823,144.253799 
	C79.872917,144.325867 78.334213,144.214661 78.072624,142.471954 
	C77.814308,140.751129 79.303497,140.415833 80.474953,139.767395 
	C85.930717,136.747498 90.970192,133.236298 94.234329,127.692848 
	C95.010803,126.374168 95.660988,125.070969 95.474655,123.514122 
	C91.835388,120.489281 87.467270,119.413895 83.058167,118.110886 
	C76.261688,116.102303 70.509369,112.091530 66.307877,106.311638 
	C64.931084,104.417618 64.889801,101.327583 66.094933,99.589729 
	C68.421112,96.235245 70.058243,91.941536 73.687691,89.934326 
	C84.196022,84.122849 95.171928,79.765633 106.952782,76.567986 
	C122.481224,72.353142 137.958984,72.776299 153.581863,72.751144 
	C158.393951,72.743401 163.761627,72.136627 167.907471,73.979980 
	C177.334915,78.171669 188.332291,77.439484 196.935181,83.595024 
	C199.846573,85.678200 202.969421,87.528244 205.691895,89.754768 
	C211.155258,94.222885 209.636627,103.276474 203.573380,107.324020 
	C196.656219,111.941612 188.944656,114.829079 181.426346,118.362007 
	C180.414352,121.693626 181.911896,125.009880 183.532791,127.257797 
	C187.944473,133.376114 187.485687,140.317261 188.257111,147.093872 
	C188.463257,148.904587 188.458511,150.769043 188.296860,152.586243 
	C187.837234,157.752884 189.533936,160.858459 194.091125,164.391373 
	C202.188889,170.669128 208.614624,178.756042 211.980606,189.154190 
	C214.591263,197.219040 215.381470,205.415451 213.993988,213.228439 
	C212.428299,222.045090 209.949173,231.317902 201.351974,236.765015 
	C200.020905,237.608353 200.360764,239.678513 197.464844,240.445068 
	C197.115433,225.531738 194.299896,211.298050 186.488388,197.567825 
	C182.650452,209.456940 174.919617,218.459412 166.616928,226.270233 
	C159.880569,232.607498 151.616806,237.744659 143.010345,242.124542 
	C138.061295,244.643143 132.664200,246.294052 127.847603,249.435181 
	C123.805389,252.071304 118.049377,252.242569 112.981934,253.080734 
	C110.066498,253.562958 107.509491,254.344589 105.215485,256.730103 
	C102.629440,257.000000 100.258888,257.000000 97.444168,257.000000 
z"/>
<path fill="#000000" opacity="1.000000" stroke="none" 
	d="
M108.539368,1.000000 
	C110.045052,3.139661 111.385452,4.714113 113.905365,5.492266 
	C122.619247,8.183135 128.628418,14.908197 135.182877,20.651031 
	C140.542953,25.347383 145.420609,30.649229 150.119675,36.025635 
	C153.199738,39.549648 155.678955,43.620796 158.244934,47.565514 
	C160.497040,51.027691 164.133469,53.735466 164.120972,58.490356 
	C164.115646,60.517735 166.329773,60.822544 167.574554,61.766109 
	C169.450150,63.187840 170.912155,64.645798 170.143723,67.122734 
	C169.232132,70.061134 166.922424,68.666084 165.103043,68.474091 
	C148.148117,66.684921 131.225204,66.651215 114.329597,69.191223 
	C112.506241,69.465340 110.748955,69.471977 109.467827,71.196312 
	C108.441986,72.577019 106.795570,72.531555 105.365417,71.886253 
	C103.829269,71.193146 104.170547,69.723053 104.313469,68.389229 
	C105.097038,61.076565 104.443039,53.734600 104.737282,46.419346 
	C104.947563,41.191547 101.962349,37.219028 99.287651,33.653934 
	C96.697029,30.200907 92.152679,29.972515 88.003189,32.595814 
	C82.036087,36.368198 76.405602,40.586113 69.789467,43.439579 
	C61.758411,46.903278 45.671120,45.351910 39.364887,39.517815 
	C38.638172,38.845509 37.900414,38.122585 38.160648,36.806137 
	C39.219906,35.249695 40.623386,35.830620 42.011932,36.438736 
	C46.012642,38.190849 49.801819,36.903831 53.904781,36.473198 
	C64.110680,35.402016 69.067551,27.771259 75.277954,21.699760 
	C81.409027,15.705814 86.418266,8.497713 94.579674,4.842585 
	C95.936882,4.234755 96.367157,2.945130 96.902473,1.337711 
	C100.692909,1.000000 104.385818,1.000000 108.539368,1.000000 
z"/>
<path fill="#000000" opacity="1.000000" stroke="none" 
	d="
M147.302460,134.240265 
	C143.061783,134.502045 139.906799,135.880646 137.223129,138.770416 
	C135.652130,140.462082 133.370773,141.494034 130.574966,143.387619 
	C131.394150,136.745865 133.404343,131.846588 137.975159,128.341599 
	C140.277740,126.575943 141.479797,123.830688 144.762146,122.811760 
	C152.080643,120.539925 159.996704,123.362000 163.070084,130.379166 
	C163.878204,132.224258 164.428085,133.887711 166.196869,135.211121 
	C168.003174,136.562607 167.813660,138.938400 166.533844,140.581512 
	C165.533264,141.866135 163.881485,141.046570 163.133041,139.915527 
	C159.361526,134.216080 153.584091,134.162994 147.302460,134.240265 
z"/>
</svg>